# xmcd
#
# Track frame offsets: 
#        150
#        12993
#        26235
#        48911
#        69400
#        86500
#        102513
#        116897
#        136933
#        152775
#        170953
#        199658
#
# Disc length: 4267 seconds
#
# Revision: 1
# Processed by: cddbd v1.5.2PL0 Copyright (c) Steve Scherf et al.
# Submitted via: ExactAudioCopy v0.95b3
#
DISCID=a710a90c
DTITLE=Various Artist - A Collabration Dedicated to Waylon Jennings: The Musi
DTITLE=c Inside, Vol. 1
DYEAR=2011
DGENRE=Country
TTITLE0=Jamey Johnson - This Time
TTITLE1=Alabama - Are You Sure Hank Done It This Way
TTITLE2=Randy Houser - I'm A Ramblin Man
TTITLE3=Shooter Jennings - Belle Of The Ball
TTITLE4=Sunny Sweeny, Jessi Colter - Good Hearted Woman
TTITLE5=James Otto - Don't You Think This Outlaw Bit's Done Got Out Of
TTITLE5=Hand
TTITLE6=John Hiatt, Waylon Jennings - Just To Satisfy You
TTITLE7=Kris Kristofferson, Patty Griffin - Rose In Paradise
TTITLE8=Trace Adkins - You Asked Me To
TTITLE9=Waylon Jennings - Go Down Rockin'
TTITLE10=Chanel Campbell - The Wurlitzer Prize
TTITLE11=Waylon Jennings - Breaking The Myth [Enhanced Video Content]
EXTD=
EXTT0=
EXTT1=
EXTT2=
EXTT3=
EXTT4=
EXTT5=
EXTT6=
EXTT7=
EXTT8=
EXTT9=
EXTT10=
EXTT11=
PLAYORDER=
